<?xml version="1.0" encoding="UTF-8"?>
<svg id="Layer_2" data-name="Layer 2" xmlns="http://www.w3.org/2000/svg" viewBox="0 0 834.96 114.08">
  <g id="Layer_1-2" data-name="Layer 1">
    <g>
      <g>
        <path d="m393.37,33.69l3.21-2.29c1.61,2.83,3.62,3.99,6.18,3.99,3.81,0,5.7-2.16,5.7-7.58V3.05h4.54v25.18c0,6.17-2.84,11.15-9.83,11.15-4.53,0-7.74-1.97-9.8-5.69Z"/>
        <path d="m421.85,29.05V12.3h4.47v16.17c0,4.92,1.49,7.03,4.99,7.03,2.7,0,4.57-1.34,7.08-4.45V12.3h4.47v26.43h-3.69l-.38-4.14h-.15c-2.45,2.88-5.09,4.79-8.72,4.79-5.57,0-8.07-3.59-8.07-10.33Z"/>
        <path d="m449.78,43.81c0-2.26,1.44-4.4,3.87-5.97v-.22c-1.34-.84-2.36-2.25-2.36-4.33,0-2.19,1.54-3.94,2.91-4.9v-.22c-1.75-1.37-3.42-3.94-3.42-7.1,0-5.78,4.55-9.41,9.92-9.41,1.45,0,2.77.29,3.73.65h9.22v3.44h-5.43c1.25,1.2,2.15,3.18,2.15,5.44,0,5.66-4.27,9.16-9.68,9.16-1.28,0-2.74-.31-3.94-.9-.96.8-1.68,1.67-1.68,3.12,0,1.68,1.09,2.87,4.63,2.87h5.14c6.14,0,9.23,1.93,9.23,6.31,0,4.91-5.2,9.14-13.36,9.14-6.47,0-10.94-2.54-10.94-7.09Zm19.92-1.38c0-2.44-1.85-3.28-5.33-3.28h-4.56c-1.01,0-2.26-.11-3.43-.39-1.89,1.34-2.7,2.91-2.7,4.43,0,2.84,2.86,4.63,7.66,4.63s8.35-2.63,8.35-5.39Zm-3.39-21.36c0-3.84-2.5-6.17-5.62-6.17s-5.62,2.29-5.62,6.17,2.57,6.28,5.62,6.28,5.62-2.43,5.62-6.28Z"/>
        <path d="m476.45,25.55c0-8.6,5.8-13.9,11.88-13.9,6.74,0,10.55,4.84,10.55,12.4,0,.94-.08,1.89-.21,2.54h-17.8c.32,5.6,3.74,9.23,8.78,9.23,2.54,0,4.62-.82,6.58-2.11l1.6,2.93c-2.32,1.52-5.13,2.74-8.73,2.74-7.04,0-12.65-5.15-12.65-13.83Zm18.47-2.16c0-5.3-2.38-8.17-6.51-8.17-3.71,0-7.04,2.98-7.58,8.17h14.09Z"/>
        <path d="m505.38,12.3h3.69l.38,3.81h.15c2.52-2.48,5.24-4.46,8.87-4.46,5.57,0,8.07,3.59,8.07,10.33v16.75h-4.47v-16.17c0-4.92-1.49-7.03-4.99-7.03-2.7,0-4.57,1.38-7.22,4.06v19.14h-4.47V12.3Z"/>
        <path d="m533.23,25.55c0-8.57,5.41-13.9,11.43-13.9,3.07,0,5.09,1.16,7.41,3.06l-.19-4.53V0h4.47v38.73h-3.69l-.38-3.12h-.15c-2.05,2.05-4.87,3.77-8.02,3.77-6.6,0-10.88-5.02-10.88-13.83Zm18.65,6.46v-13.85c-2.26-2.01-4.29-2.75-6.45-2.75-4.23,0-7.59,4.08-7.59,10.1,0,6.34,2.62,10.11,7.25,10.11,2.44,0,4.56-1.19,6.78-3.61Z"/>
        <path d="m565.28,0h4.39v26.23h.15l11.28-13.93h4.96l-8.85,10.62,10.01,15.81h-4.89l-7.7-12.7-4.96,5.76v6.94h-4.39V0Z"/>
        <path d="m591.07,29.05V12.3h4.47v16.17c0,4.92,1.49,7.03,4.99,7.03,2.7,0,4.57-1.34,7.08-4.45V12.3h4.47v26.43h-3.69l-.38-4.14h-.15c-2.45,2.88-5.09,4.79-8.72,4.79-5.57,0-8.07-3.59-8.07-10.33Z"/>
        <path d="m621,33.42V0h4.47v33.75c0,1.37.6,1.91,1.25,1.91.26,0,.47,0,.98-.11l.61,3.42c-.64.23-1.4.42-2.57.42-3.35,0-4.73-2.14-4.73-5.96Z"/>
        <path d="m635.64,30.56v-14.61h-3.93v-3.39l4.13-.26.54-7.41h3.73v7.41h7.16v3.64h-7.16v14.69c0,3.23,1.04,5.1,4.09,5.1.94,0,2.15-.36,3.01-.71l.86,3.37c-1.48.5-3.25.98-4.9.98-5.62,0-7.53-3.56-7.53-8.82Z"/>
        <path d="m652.88,29.05V12.3h4.47v16.17c0,4.92,1.49,7.03,4.99,7.03,2.7,0,4.57-1.34,7.08-4.45V12.3h4.47v26.43h-3.69l-.38-4.14h-.15c-2.45,2.88-5.09,4.79-8.72,4.79-5.57,0-8.07-3.59-8.07-10.33Z"/>
        <path d="m682.8,12.3h3.69l.38,4.81h.15c1.84-3.35,4.54-5.47,7.51-5.47,1.17,0,1.99.15,2.82.54l-.83,3.92c-.91-.29-1.5-.43-2.56-.43-2.23,0-4.9,1.61-6.69,6.08v16.97h-4.47V12.3Z"/>
        <path d="m699.22,12.3h4.61l5,15.01c.79,2.58,1.65,5.27,2.44,7.79h.22c.79-2.52,1.65-5.21,2.44-7.79l5-15.01h4.38l-9.35,26.43h-5.2l-9.54-26.43Z"/>
        <path d="m726.23,25.55c0-8.6,5.8-13.9,11.88-13.9,6.74,0,10.55,4.84,10.55,12.4,0,.94-.08,1.89-.21,2.54h-17.8c.32,5.6,3.74,9.23,8.78,9.23,2.54,0,4.62-.82,6.58-2.11l1.6,2.93c-2.32,1.52-5.13,2.74-8.73,2.74-7.04,0-12.65-5.15-12.65-13.83Zm18.47-2.16c0-5.3-2.38-8.17-6.51-8.17-3.71,0-7.04,2.98-7.58,8.17h14.09Z"/>
        <path d="m755.16,12.3h3.69l.38,4.81h.15c1.84-3.35,4.54-5.47,7.51-5.47,1.17,0,1.99.15,2.82.54l-.83,3.92c-.91-.29-1.5-.43-2.56-.43-2.23,0-4.9,1.61-6.69,6.08v16.97h-4.47V12.3Z"/>
        <path d="m771.51,25.55c0-8.6,5.8-13.9,11.88-13.9,6.74,0,10.55,4.84,10.55,12.4,0,.94-.08,1.89-.21,2.54h-17.8c.32,5.6,3.74,9.23,8.78,9.23,2.54,0,4.62-.82,6.58-2.11l1.6,2.93c-2.32,1.52-5.13,2.74-8.73,2.74-7.04,0-12.65-5.15-12.65-13.83Zm18.47-2.16c0-5.3-2.38-8.17-6.51-8.17-3.71,0-7.04,2.98-7.58,8.17h14.09Z"/>
        <path d="m799.62,3.98c0-1.76,1.35-2.89,3.09-2.89s3.09,1.13,3.09,2.89-1.35,2.89-3.09,2.89-3.09-1.2-3.09-2.89Zm.82,8.32h4.47v26.43h-4.47V12.3Z"/>
        <path d="m813.81,12.3h3.69l.38,3.81h.15c2.52-2.48,5.24-4.46,8.87-4.46,5.57,0,8.07,3.59,8.07,10.33v16.75h-4.47v-16.17c0-4.92-1.49-7.03-4.99-7.03-2.7,0-4.57,1.38-7.22,4.06v19.14h-4.47V12.3Z"/>
        <path d="m396.18,77.88h6.31v16.16h.17l12.66-16.16h7l-10.94,13.87,12.79,21.68h-6.96l-9.61-16.72-5.11,6.35v10.37h-6.31v-35.56Z"/>
        <path d="m427.13,103.47v-16.75h6.26v15.94c0,4.39,1.26,6.05,4.15,6.05,2.35,0,3.89-1.09,5.92-3.7v-18.29h6.26v26.71h-5.13l-.48-3.94h-.17c-2.35,2.78-4.94,4.59-8.59,4.59-5.72,0-8.22-3.87-8.22-10.61Z"/>
        <path d="m457.66,86.73h5.13l.48,4.76h.17c1.9-3.48,4.73-5.42,7.59-5.42,1.36,0,2.22.17,3.02.54l-1.09,5.44c-.93-.26-1.63-.44-2.74-.44-2.13,0-4.7,1.46-6.31,5.52v16.29h-6.26v-26.71Z"/>
        <path d="m475.48,86.73h6.35l4.24,13.85c.74,2.63,1.52,5.37,2.26,8.05h.22c.74-2.67,1.52-5.42,2.26-8.05l4.24-13.85h6.05l-9.07,26.71h-7.24l-9.31-26.71Z"/>
        <path d="m503.63,100.1c0-8.68,6.02-14.03,12.31-14.03,7.22,0,11.03,5.22,11.03,12.68,0,1.2-.13,2.39-.27,3.04h-16.95c.52,4.74,3.57,7.44,7.87,7.44,2.28,0,4.24-.72,6.2-1.94l2.13,3.89c-2.54,1.72-5.76,2.89-9.16,2.89-7.37,0-13.16-5.18-13.16-13.98Zm17.92-2.57c0-4.11-1.83-6.61-5.48-6.61-3.11,0-5.85,2.33-6.39,6.61h11.87Z"/>
      </g>
      <path d="m322.17,55.92C313.15,28.43,303.83.01,284.25.02c-14.33,0-23.17,15.24-30.41,34.18l-16.39,14.74,3.34,3.72,9.46-8.51c-1.33,3.89-2.63,7.84-3.92,11.77-8.46,25.79-17.2,52.46-33.16,52.46s-24.7-26.67-33.16-52.46C171.02,28.44,161.7.02,142.12.02c-19.58,0-28.9,28.42-37.91,55.9-8.46,25.79-17.2,52.46-33.15,52.46s-24.7-26.67-33.15-52.46C28.89,28.44,19.58.02,0,.02v5c15.95,0,24.7,26.67,33.16,52.46,9.01,27.48,18.33,55.9,37.91,55.9,19.58,0,28.9-28.42,37.91-55.9,8.46-25.79,17.2-52.46,33.15-52.46s24.7,26.67,33.16,52.46c9.01,27.48,18.33,55.9,37.91,55.9,19.58,0,28.9-28.42,37.91-55.9,1.38-4.21,2.77-8.43,4.19-12.57l2.85,13.39,4.89-1.04-4.53-21.26c6.58-17.27,14.31-30.98,25.75-30.98,15.96,0,24.7,26.67,33.16,52.46,9.01,27.48,18.33,55.9,37.91,55.9v-5c-15.96,0-24.7-26.67-33.16-52.46Z"/>
    </g>
  </g>
</svg>